# xmcd
#
# Track frame offsets:
#  150
#  11100
#  22960
#  34208
#  44602
#  57208
#  69042
#  79272
#  92944
#  105180
#  118817
#  129319
#
# Disc length: 1902 seconds
#
# Revision: 0
# Processed by: cddbd v1.5.1PL2 Copyright (c) Steve Scherf et al.
# Submitted via: Collectorz.com_Music_Collector 6.9
#
DISCID=95076c0c
DTITLE=Ray Price - Burning Memories
DYEAR=2003
DGENRE=
TTITLE0=01 - Burning Memories
TTITLE1=02 - Here Comes My Baby Back Again
TTITLE2=03 - Make The World Go Away
TTITLE3=04 - Are You Sure
TTITLE4=05 - Soft Rain
TTITLE5=06 - Release Me
TTITLE6=07 - Together Again
TTITLE7=08 - You Took Her Off My Hands(Now Please Take Her Off My Mind)
TTITLE8=09 - A Thing Called Sadness
TTITLE9=10 - Walk Me To The Door
TTITLE10=11 - That's All That Matters
TTITLE11=12 - Let Me Talk To You
EXTD=
EXTT0=
EXTT1=
EXTT2=
EXTT3=
EXTT4=
EXTT5=
EXTT6=
EXTT7=
EXTT8=
EXTT9=
EXTT10=
EXTT11=
PLAYORDER=
